<svg width="40" height="48" viewBox="0 0 40 48" fill="none" xmlns="http://www.w3.org/2000/svg">
    <path d="M0 21C0 9.95431 8.95431 1 20 1C31.0457 1 40 9.95431 40 21V37.4922C40 39.7629 39.2272 41.966 37.8087 43.7391L37.2228 44.4715C33.5199 49.1001 26.4801 49.1001 22.7772 44.4715C21.0218 42.2773 18.3643 41 15.5543 41H13.5078C6.04765 41 0 34.9523 0 27.4922V21Z" fill="#49865A" fill-opacity="0.2"/>
    <path d="M0 20C0 8.95431 8.95431 0 20 0C31.0457 0 40 8.95431 40 20V36.4922C40 38.7629 39.2272 40.966 37.8087 42.7391L37.2228 43.4715C33.5199 48.1001 26.4801 48.1001 22.7772 43.4715C21.0218 41.2773 18.3643 40 15.5543 40H13.5078C6.04765 40 0 33.9523 0 26.4922V20Z" fill="#5DB075"/>
</svg>
