<svg width="21" height="20" viewBox="0 0 21 20" fill="none" xmlns="http://www.w3.org/2000/svg">
    <path d="M16.9337 17.6055C15.1993 19.0703 12.9494 20 10.5001 20C6.85559 20 3.65633 17.9922 1.922 15.0625L2.57129 12.0695L5.44934 11.5352C6.11731 13.6914 8.13289 15.2734 10.5001 15.2734C11.6485 15.2734 12.715 14.9102 13.5939 14.2656L16.3595 14.6875L16.9337 17.6055Z" fill="#59C36A"/>
    <path d="M16.9336 17.6055L16.3594 14.6875L13.5938 14.2656C12.7148 14.9102 11.6484 15.2734 10.5 15.2734V20C12.9493 20 15.1992 19.0703 16.9336 17.6055Z" fill="#00A66C"/>
    <path d="M5.22656 10C5.22656 10.539 5.30859 11.0547 5.44922 11.5352L1.92187 15.0625C1.04297 13.5859 0.5 11.8515 0.5 10C0.5 8.1484 1.04297 6.41406 1.92187 4.9375L4.75285 5.42473L5.44922 8.46484C5.30859 8.94527 5.22656 9.4609 5.22656 10Z" fill="#FFDA2D"/>
    <path d="M20.5 10C20.5 13.0468 19.0899 15.7773 16.9336 17.6055L13.5938 14.2656C14.2734 13.7734 14.8477 13.1171 15.2227 12.3438H10.5C10.1718 12.3438 9.91406 12.0859 9.91406 11.7578V8.24219C9.91406 7.91402 10.1718 7.65625 10.5 7.65625H19.75C20.0313 7.65625 20.2773 7.85543 20.3242 8.13668C20.4414 8.74609 20.5 9.37887 20.5 10Z" fill="#4086F4"/>
    <path d="M15.2227 12.3438C14.8477 13.1171 14.2734 13.7734 13.5938 14.2656L16.9336 17.6055C19.0899 15.7773 20.5 13.0469 20.5 10C20.5 9.37887 20.4414 8.74609 20.3242 8.13668C20.2773 7.85543 20.0312 7.65625 19.75 7.65625H10.5V12.3438H15.2227Z" fill="#376AED"/>
    <path d="M17.0978 2.79293C17.1095 2.95699 17.0392 3.10938 16.9337 3.22652L14.4259 5.72262C14.2267 5.93355 13.8986 5.95699 13.6642 5.78121C12.7384 5.08984 11.6485 4.72656 10.5001 4.72656C8.13289 4.72656 6.11731 6.30855 5.44934 8.46484L1.922 4.9375C3.65633 2.00781 6.85559 0 10.5001 0C12.8322 0 15.1056 0.859375 16.8868 2.35934C17.0157 2.46484 17.0861 2.62887 17.0978 2.79293Z" fill="#FF7F23"/>
    <path d="M13.6641 5.78121C13.8984 5.95703 14.2265 5.93356 14.4257 5.72262L16.9336 3.22652C17.0391 3.10938 17.1094 2.95703 17.0976 2.79293C17.0859 2.62883 17.0156 2.46484 16.8867 2.35934C15.1055 0.859375 12.832 0 10.5 0V4.72656C11.6484 4.72656 12.7382 5.08984 13.6641 5.78121Z" fill="#F03800"/>
</svg>
